<svg width="85" height="85" viewBox="0 0 95 95" fill="none" xmlns="http://www.w3.org/2000/svg">
<g id="Group 307">
<path id="Ellipse 26" d="M17.6222 29.8779C13.8053 36.4889 12.2888 44.1793 13.3103 51.7444C14.3318 59.3096 17.8336 66.3223 23.2672 71.6843C28.7008 77.0463 35.7594 80.4547 43.3374 81.3758C50.9155 82.2969 58.585 80.6786 65.1449 76.7743C71.7047 72.87 76.7844 66.9003 79.5884 59.8001C82.3924 52.6999 82.7623 44.8703 80.6402 37.5373C78.5181 30.2044 74.0239 23.7824 67.8613 19.277C61.6988 14.7717 54.216 12.4375 46.5849 12.64" stroke="#2E2E2E" stroke-width="3" stroke-linecap="round"/>
<g id="Group 289">
<circle id="Ellipse 41" cx="37.6279" cy="47.7557" r="2.5" fill="#2E2E2E"/>
<circle id="Ellipse 42" cx="47.6279" cy="47.7557" r="2.5" fill="#2E2E2E"/>
<circle id="Ellipse 43" cx="57.6279" cy="47.7557" r="2.5" fill="#2E2E2E"/>
</g>
</g>
</svg>
