<?xml version="1.0" standalone="no"?>
<!DOCTYPE svg PUBLIC "-//W3C//DTD SVG 20010904//EN"
 "http://www.w3.org/TR/2001/REC-SVG-20010904/DTD/svg10.dtd">
<svg version="1.0" xmlns="http://www.w3.org/2000/svg"
 width="512.000000pt" height="512.000000pt" viewBox="0 0 512.000000 512.000000"
 preserveAspectRatio="xMidYMid meet">
<metadata>
Created by potrace 1.14, written by Peter Selinger 2001-2017
</metadata>
<g transform="translate(0.000000,512.000000) scale(0.100000,-0.100000)"
fill="#000000" stroke="none">
<path d="M0 2560 l0 -2560 2560 0 2560 0 0 2560 0 2560 -2560 0 -2560 0 0
-2560z m1756 1336 c95 -44 139 -87 182 -179 21 -45 171 -403 333 -794 259
-629 295 -710 305 -690 6 12 150 357 319 767 169 410 321 764 337 787 36 50
96 93 163 119 65 25 206 25 287 1 98 -30 186 -116 220 -215 10 -29 13 -310 16
-1269 l2 -1233 -260 0 -260 0 -2 874 -3 874 -284 -689 -285 -689 -265 2 -264
3 -282 683 c-155 375 -285 685 -288 689 -4 3 -7 -388 -7 -870 l0 -877 -260 0
-260 0 0 1205 c0 1248 1 1267 42 1348 42 83 142 154 250 177 78 16 199 5 264
-24z"/>
</g>
</svg>
