<svg width="47" height="43" viewBox="0 0 47 43" fill="none" xmlns="http://www.w3.org/2000/svg">
<g id="Group 1442">
<path id="star/wide" d="M17 43L16.721 35.1385C16.5503 30.3288 12.8545 26.4715 8.24844 26.2957L0.499998 26L8.24843 25.7043C12.8545 25.5285 16.5503 21.6712 16.721 16.8616L17 9L17.279 16.8615C17.4497 21.6712 21.1455 25.5285 25.7516 25.7043L33.5 26L25.7516 26.2957C21.1455 26.4715 17.4497 30.3288 17.279 35.1385L17 43Z" fill="#3C4B9D"/>
<path id="star/wide_2" d="M36 22L35.8224 16.9131C35.7138 13.801 33.3619 11.3051 30.4308 11.1914L25.5 11L30.4308 10.8086C33.3619 10.6949 35.7138 8.19902 35.8224 5.08689L36 9.93578e-07L36.1776 5.08688C36.2862 8.19902 38.6381 10.6949 41.5692 10.8086L46.5 11L41.5692 11.1914C38.6381 11.3051 36.2862 13.801 36.1776 16.9131L36 22Z" fill="#3C4B9D"/>
</g>
</svg>
