<svg
xmlns="http://www.w3.org/2000/svg"
width="18"
height="23"
viewBox="0 0 18 23"
fill="none">
<path
    fill-rule="evenodd"
    clip-rule="evenodd"
    d="M17.3477 1.06411C17.4404 1.13408 17.5155 1.2246 17.5672 1.32854C17.6189 1.43249 17.6458 1.54702 17.6457 1.66311V15.7161C17.6456 16.368 17.4331 17.002 17.0405 17.5224C16.6479 18.0428 16.0965 18.4211 15.4697 18.6001L14.1497 18.9771C13.8259 19.0743 13.486 19.1062 13.1497 19.071C12.8135 19.0357 12.4875 18.9341 12.1909 18.7718C11.8942 18.6096 11.6328 18.3901 11.4217 18.126C11.2106 17.8619 11.054 17.5585 10.9611 17.2334C10.8682 16.9084 10.8408 16.5681 10.8804 16.2323C10.9201 15.8965 11.0261 15.572 11.1922 15.2775C11.3583 14.983 11.5813 14.7245 11.8481 14.5169C12.115 14.3093 12.4204 14.1567 12.7467 14.0681L15.0577 13.4081C15.3711 13.3186 15.6468 13.1294 15.8431 12.8693C16.0394 12.6091 16.1456 12.292 16.1457 11.9661V6.40711L7.14571 8.97911V18.7161C7.14558 19.368 6.93313 20.002 6.54052 20.5224C6.14791 21.0428 5.5965 21.4211 4.96971 21.6001L3.64971 21.9771C3.32548 22.0756 2.98487 22.1086 2.64776 22.0741C2.31065 22.0397 1.98377 21.9384 1.68619 21.7763C1.3886 21.6142 1.12627 21.3945 0.91449 21.1299C0.702706 20.8654 0.545707 20.5613 0.452646 20.2355C0.359586 19.9096 0.332327 19.5685 0.372458 19.232C0.41259 18.8956 0.519309 18.5704 0.686393 18.2756C0.853477 17.9808 1.07758 17.7222 1.34564 17.5149C1.6137 17.3076 1.92035 17.1557 2.24771 17.0681L4.55771 16.4081C4.87111 16.3186 5.14681 16.1294 5.34312 15.8693C5.53942 15.6091 5.64565 15.292 5.64571 14.9661V8.43011V4.66311C5.64575 4.50015 5.69886 4.34163 5.79701 4.21154C5.89516 4.08145 6.03302 3.98687 6.18971 3.94211L16.6897 0.942113C16.8013 0.910117 16.9189 0.904483 17.0331 0.925654C17.1473 0.946825 17.255 0.994223 17.3477 1.06411Z"
    fill="#3B59FA"
/>
</svg>