<svg width="46" height="54" viewBox="0 0 46 54" fill="none" xmlns="http://www.w3.org/2000/svg">
<g id="icon">
<g id="Rectangle 200">
<path d="M34.6471 9.94737C34.6471 11.0519 35.5425 11.9474 36.6471 11.9474H45L34.6471 1V9.94737Z" fill="#DFDFDF"/>
<path d="M34.6471 1H3C1.89543 1 1 1.89543 1 3V51C1 52.1046 1.89543 53 3 53H43C44.1046 53 45 52.1046 45 51V11.9474M34.6471 1V9.94737C34.6471 11.0519 35.5425 11.9474 36.6471 11.9474H45M34.6471 1L45 11.9474" stroke="#E0E0E0" stroke-width="2" stroke-linejoin="round"/>
</g>
<path id="Union" fill-rule="evenodd" clip-rule="evenodd" d="M30 18V16.6426L28.7036 17.045L17.3036 20.5834L16.6 20.8018V21.5385V39.0959L13.6887 40.0497C13.1638 40.2217 12.8778 40.7866 13.0497 41.3114C13.2217 41.8362 13.7865 42.1223 14.3114 41.9503L17.9114 40.7708L18.6 40.5452V39.8205V26.8729L28 24.3093V34.9677L25.0887 35.9215C24.5638 36.0935 24.2778 36.6583 24.4497 37.1832C24.6217 37.708 25.1865 37.9941 25.7114 37.8221L29.3114 36.6426L30 36.417V35.6923V18ZM28 22.2362V19.3575L18.6 22.2752V24.7999L28 22.2362Z" fill="#DFDFDF"/>
</g>
</svg>
