<svg xmlns="http://www.w3.org/2000/svg" width="26" height="30" viewBox="0 0 26 30" fill="none">
<path d="M0 3.21875C0 2.49769 0.293494 1.80617 0.815917 1.2963C1.33834 0.786439 2.0469 0.5 2.78571 0.5H15.561C16.2996 0.500635 17.0076 0.78749 17.5296 1.2975L25.1847 8.765C25.4436 9.0178 25.6488 9.31793 25.7887 9.64822C25.9286 9.97851 26.0004 10.3325 26 10.6899V26.7812C26 27.5023 25.7065 28.1938 25.1841 28.7037C24.6617 29.2136 23.9531 29.5 23.2143 29.5H2.78571C2.0469 29.5 1.33834 29.2136 0.815917 28.7037C0.293494 28.1938 0 27.5023 0 26.7812V3.21875Z" fill="#3B59FA"/>
<path fill-rule="evenodd" clip-rule="evenodd" d="M17.776 8.61412C17.8456 8.66699 17.9021 8.73539 17.941 8.81393C17.9799 8.89248 18.0001 8.97902 18 9.06675V19.6857C17.9999 20.1782 17.8402 20.6573 17.545 21.0505C17.2498 21.4437 16.8353 21.7296 16.364 21.8649L15.3716 22.1498C15.1281 22.2232 14.8726 22.2473 14.6198 22.2207C14.367 22.1941 14.1219 22.1172 13.8989 21.9947C13.6759 21.8721 13.4793 21.7062 13.3206 21.5067C13.1619 21.3071 13.0442 21.0778 12.9743 20.8322C12.9045 20.5866 12.8839 20.3294 12.9137 20.0757C12.9435 19.822 13.0232 19.5767 13.1481 19.3542C13.273 19.1317 13.4406 18.9363 13.6412 18.7795C13.8419 18.6226 14.0715 18.5073 14.3168 18.4404L16.0543 17.9417C16.2899 17.874 16.4972 17.7311 16.6448 17.5345C16.7923 17.3379 16.8722 17.0983 16.8723 16.852V12.6515L10.1058 14.595V21.9526C10.1057 22.4451 9.946 22.9242 9.65082 23.3174C9.35565 23.7106 8.94108 23.9965 8.46985 24.1318L7.47743 24.4167C7.23367 24.4911 6.97759 24.516 6.72414 24.49C6.47069 24.4639 6.22493 24.3874 6.0012 24.2649C5.77747 24.1424 5.58025 23.9764 5.42102 23.7765C5.2618 23.5766 5.14376 23.3469 5.07379 23.1006C5.00383 22.8544 4.98334 22.5967 5.01351 22.3424C5.04368 22.0881 5.12391 21.8425 5.24953 21.6197C5.37515 21.3969 5.54364 21.2015 5.74517 21.0449C5.94671 20.8882 6.17726 20.7734 6.42337 20.7073L8.16009 20.2086C8.39571 20.1409 8.60299 19.998 8.75058 19.8014C8.89817 19.6048 8.97803 19.3652 8.97808 19.1189V14.1801V11.3336C8.97811 11.2105 9.01804 11.0907 9.09183 10.9924C9.16562 10.8941 9.26927 10.8227 9.38707 10.7888L17.2813 8.52193C17.3652 8.49776 17.4536 8.4935 17.5394 8.5095C17.6252 8.52549 17.7062 8.56131 17.776 8.61412Z" fill="white"/>
</svg>