<svg preserveAspectRatio="xMidYMid meet" data-bbox="29.9 29.6 139.9 140" viewBox="29.9 29.6 139.9 140" height="200" width="200" xmlns="http://www.w3.org/2000/svg" data-type="color" role="img" aria-label="홈페이지"><defs><style>#comp-kkpgxgqu svg [data-color="1"] {fill: #281A39;}</style></defs>
    <g>
        <path fill="#FFFFFF" d="M51.7 47.1c0 6.02-4.88 10.9-10.9 10.9-6.02 0-10.9-4.88-10.9-10.9 0-6.02 4.88-10.9 10.9-10.9 6.02 0 10.9 4.88 10.9 10.9z" data-color="1"></path>
        <path fill="#FFFFFF" d="M114.1 47.1c0 9.665-7.835 17.5-17.5 17.5s-17.5-7.835-17.5-17.5 7.835-17.5 17.5-17.5 17.5 7.835 17.5 17.5z" data-color="1"></path>
        <path fill="#FFFFFF" d="M169.8 47.1c0 9.665-7.835 17.5-17.5 17.5s-17.5-7.835-17.5-17.5 7.835-17.5 17.5-17.5 17.5 7.835 17.5 17.5z" data-color="1"></path>
        <path fill="#FFFFFF" d="M51.7 99.6c0 6.02-4.88 10.9-10.9 10.9-6.02 0-10.9-4.88-10.9-10.9 0-6.02 4.88-10.9 10.9-10.9 6.02 0 10.9 4.88 10.9 10.9z" data-color="1"></path>
        <path fill="#FFFFFF" d="M114.1 99.6c0 9.665-7.835 17.5-17.5 17.5s-17.5-7.835-17.5-17.5 7.835-17.5 17.5-17.5 17.5 7.835 17.5 17.5z" data-color="1"></path>
        <path fill="#FFFFFF" d="M169.8 99.6c0 9.665-7.835 17.5-17.5 17.5s-17.5-7.835-17.5-17.5 7.835-17.5 17.5-17.5 17.5 7.835 17.5 17.5z" data-color="1"></path>
        <path fill="#FFFFFF" d="M51.7 152.1c0 6.02-4.88 10.9-10.9 10.9-6.02 0-10.9-4.88-10.9-10.9 0-6.02 4.88-10.9 10.9-10.9 6.02 0 10.9 4.88 10.9 10.9z" data-color="1"></path>
        <path fill="#FFFFFF" d="M114.1 152.1c0 9.665-7.835 17.5-17.5 17.5s-17.5-7.835-17.5-17.5 7.835-17.5 17.5-17.5 17.5 7.835 17.5 17.5z" data-color="1"></path>
        <path fill="#FFFFFF" d="M163.2 152.1c0 6.02-4.88 10.9-10.9 10.9-6.02 0-10.9-4.88-10.9-10.9 0-6.02 4.88-10.9 10.9-10.9 6.02 0 10.9 4.88 10.9 10.9z" data-color="1"></path>
    </g>
</svg>