<svg width="51" height="51" viewBox="0 0 51 51" fill="none" xmlns="http://www.w3.org/2000/svg">
<g id="Group 304">
<rect id="Rectangle 274" x="8.5" y="8.25586" width="34" height="34" rx="4" stroke="#474747" stroke-width="2"/>
<rect id="Rectangle 292" x="17.5" y="17.2559" width="16" height="16" rx="2" stroke="#474747" stroke-width="2"/>
<rect id="Rectangle 297" x="32.5" y="0.255859" width="9" height="2" rx="1" transform="rotate(90 32.5 0.255859)" fill="#474747"/>
<rect id="Rectangle 298" x="18.5" y="0.255859" width="9" height="2" rx="1" transform="rotate(90 18.5 0.255859)" fill="#474747"/>
<rect id="Rectangle 299" x="25.5" y="0.255859" width="9" height="2" rx="1" transform="rotate(90 25.5 0.255859)" fill="#474747"/>
<rect id="Rectangle 300" x="32.5" y="41.2559" width="9" height="2" rx="1" transform="rotate(90 32.5 41.2559)" fill="#474747"/>
<rect id="Rectangle 301" x="18.5" y="41.2559" width="9" height="2" rx="1" transform="rotate(90 18.5 41.2559)" fill="#474747"/>
<rect id="Rectangle 302" x="25.5" y="41.2559" width="9" height="2" rx="1" transform="rotate(90 25.5 41.2559)" fill="#474747"/>
<rect id="Rectangle 303" x="50.5" y="33.2559" width="9" height="2" rx="1" transform="rotate(-180 50.5 33.2559)" fill="#474747"/>
<rect id="Rectangle 304" x="50.5" y="19.2559" width="9" height="2" rx="1" transform="rotate(-180 50.5 19.2559)" fill="#474747"/>
<rect id="Rectangle 305" x="50.5" y="26.2559" width="9" height="2" rx="1" transform="rotate(-180 50.5 26.2559)" fill="#474747"/>
<rect id="Rectangle 306" x="9.5" y="33.2559" width="9" height="2" rx="1" transform="rotate(-180 9.5 33.2559)" fill="#474747"/>
<rect id="Rectangle 307" x="9.5" y="19.2559" width="9" height="2" rx="1" transform="rotate(-180 9.5 19.2559)" fill="#474747"/>
<rect id="Rectangle 308" x="9.5" y="26.2559" width="9" height="2" rx="1" transform="rotate(-180 9.5 26.2559)" fill="#474747"/>
</g>
</svg>
