<svg width="51" height="51" viewBox="0 0 51 51" fill="none" xmlns="http://www.w3.org/2000/svg">
<g id="Group 303">
<path id="Star 1" d="M24.7864 2.41016C25.1784 2.01091 25.8216 2.01091 26.2136 2.41016L30.1592 6.42922C30.8457 7.12842 31.8303 7.44835 32.7966 7.28615L38.3511 6.35386C38.9028 6.26125 39.4232 6.63935 39.5057 7.19274L40.3354 12.7634L41.3245 12.6161L40.3354 12.7634C40.4798 13.7326 41.0883 14.5701 41.9654 15.0069L47.007 17.5175C47.5079 17.7669 47.7067 18.3787 47.4481 18.8748L44.845 23.8693C44.3921 24.7382 44.3921 25.7735 44.845 26.6424L47.4481 31.6369C47.7067 32.1331 47.5079 32.7448 47.007 32.9942L41.9654 35.5048C41.0883 35.9416 40.4798 36.7792 40.3354 37.7483L39.5057 43.319C39.4232 43.8724 38.9028 44.2505 38.3511 44.1579L32.7966 43.2256C31.8303 43.0634 30.8457 43.3833 30.1592 44.0825L26.2136 48.1016C25.8216 48.5008 25.1784 48.5008 24.7864 48.1016L20.8408 44.0825C20.1543 43.3833 19.1697 43.0634 18.2034 43.2256L12.6489 44.1579C12.0972 44.2505 11.5768 43.8724 11.4943 43.319L10.6646 37.7483C10.5202 36.7792 9.91168 35.9416 9.03458 35.5048L3.99296 32.9942C3.49212 32.7448 3.29335 32.1331 3.55194 31.6369L6.15501 26.6424C6.60788 25.7735 6.60788 24.7382 6.15501 23.8693L3.55194 18.8748C3.29335 18.3787 3.49213 17.7669 3.99296 17.5175L9.03458 15.0069C9.91168 14.5701 10.5202 13.7326 10.6646 12.7634L11.4943 7.19274C11.5768 6.63935 12.0972 6.26125 12.6489 6.35386L18.2034 7.28615C19.1697 7.44835 20.1543 7.12842 20.8408 6.42922L24.7864 2.41016Z" stroke="#474747" stroke-width="2"/>
<path id="Vector 29" d="M17.5 25.502L22.3421 30.4559L33.5 19.2559" stroke="#474747" stroke-width="2" stroke-linecap="round" stroke-linejoin="round"/>
</g>
</svg>
